<svg xmlns="http://www.w3.org/2000/svg" width="120" height="40" fill="none" viewBox="0 0 120 40">
  <g class="Badge" clip-path="url(#clip0_10291_91604)">
    <g class="g4036">
      <g class="g4038">
        <path fill="#9B9B9B" d="M110.444 0H9.561c-.367 0-.73 0-1.097.002-.307.002-.612.008-.922.013-.673.008-1.345.067-2.01.177a6.697 6.697 0 00-1.906.627 6.455 6.455 0 00-2.804 2.8 6.588 6.588 0 00-.627 1.903 12.958 12.958 0 00-.18 2.002c-.01.306-.01.614-.015.92V31.56c.005.31.006.611.015.922.008.67.068 1.34.18 2.002.11.663.322 1.305.627 1.904A6.208 6.208 0 002.003 38a6.291 6.291 0 001.623 1.179c.6.304 1.243.517 1.907.63.664.11 1.336.169 2.01.177.31.007.614.011.92.011.367.002.73.002 1.098.002h100.883c.36 0 .727 0 1.087-.002.306 0 .619-.004.924-.01a13.325 13.325 0 002.006-.177 6.833 6.833 0 001.914-.631A6.296 6.296 0 00117.996 38a6.366 6.366 0 001.185-1.614c.303-.6.512-1.242.621-1.904.112-.662.174-1.331.186-2.002.004-.311.004-.612.004-.922.008-.364.008-.725.008-1.094V9.536c0-.366 0-.73-.008-1.092 0-.306 0-.614-.004-.92a13.437 13.437 0 00-.186-2.002 6.59 6.59 0 00-.621-1.904 6.474 6.474 0 00-2.806-2.8 6.798 6.798 0 00-1.914-.627c-.663-.11-1.333-.169-2.006-.176-.305-.005-.618-.011-.924-.013-.36-.002-.727-.002-1.087-.002z" class="Vector"/>
        <path fill="#4A4A4A" d="M8.469 39.125c-.306 0-.604-.004-.907-.01a12.74 12.74 0 01-1.875-.164 5.908 5.908 0 01-1.661-.547 5.418 5.418 0 01-1.401-1.017 5.32 5.32 0 01-1.023-1.397 5.71 5.71 0 01-.545-1.657 12.377 12.377 0 01-.167-1.875 90.92 90.92 0 01-.015-.913v-23.1s.01-.692.015-.895c.008-.627.063-1.253.166-1.872.096-.579.28-1.139.545-1.662a5.58 5.58 0 012.424-2.42 5.851 5.851 0 011.658-.544C6.305.95 6.934.895 7.564.887L8.47.875h103.057l.916.013c.624.007 1.247.062 1.863.163a5.965 5.965 0 011.676.547 5.6 5.6 0 012.422 2.42c.261.52.442 1.076.536 1.65.105.623.163 1.254.175 1.886.003.284.003.588.003.89.008.376.008.733.008 1.092v20.929c0 .363 0 .718-.008 1.075 0 .325 0 .623-.004.93-.012.621-.069 1.24-.172 1.853a5.717 5.717 0 01-.541 1.67 5.46 5.46 0 01-1.019 1.386 5.41 5.41 0 01-1.403 1.023 5.893 5.893 0 01-1.673.55c-.619.1-1.246.155-1.874.163-.294.006-.601.01-.9.01l-1.087.002-101.975-.002z" class="Vector_2"/>
        <path fill="#fff" fill-rule="evenodd" d="M96.588 28.956h-1.655V17.76h1.654v11.195zm11.354-2.31l1.897-4.853h1.84l-4.55 10.557h-1.726l1.683-3.773-2.953-6.784h1.783l1.969 4.854h.057zm-8.787.087c0 .677.756.951 1.299.951.955 0 1.839-.735 1.968-1.771-.443-.217-.784-.375-1.513-.375-.812 0-1.754.331-1.754 1.195zm-1.454-3.47c.513-1.182 1.754-1.715 2.952-1.715 1.897 0 3.366 1.11 3.366 3.097v4.292h-1.597v-.864h-.057c-.386.59-.999 1.095-2.112 1.095-1.454 0-2.753-.966-2.753-2.464 0-1.642 1.612-2.52 3.196-2.52.785 0 1.426.26 1.726.432v-.115c-.015-.922-.885-1.44-1.741-1.44-.613 0-1.198.201-1.512.82l-1.468-.619zm-9.63-.107h2.354c1.237 0 1.94-1.051 1.94-1.919 0-.884-.703-1.918-1.94-1.918h-2.354v3.837zm-1.654-5.396h3.966c1.834 0 3.637 1.341 3.637 3.477s-1.803 3.477-3.637 3.477H88.07v4.242h-1.654V17.76zm-19.759 7.632c0 1.328.957 2.294 2.1 2.294 1.13 0 2.015-.966 2.015-2.294 0-1.341-.886-2.323-2.014-2.323-1.144 0-2.1.982-2.1 2.323zm3.944-2.972h.057v-.62h1.572v6.838c0 2.813-1.643 3.968-3.587 3.968-1.829 0-2.929-1.241-3.343-2.25l1.443-.607c.257.62.886 1.357 1.9 1.357 1.243 0 2.015-.78 2.015-2.237v-.548h-.057c-.372.461-1.086.865-1.986.865-1.886 0-3.615-1.659-3.615-3.794 0-2.15 1.728-3.823 3.615-3.823.9 0 1.614.404 1.986.851zm4.43 6.535h-1.658V17.76h1.657v11.195zm4.414-5.914c-.843 0-2.014.75-1.971 2.221l3.371-1.413c-.185-.477-.742-.808-1.4-.808zm-.057-1.472c1.958 0 2.916 1.572 3.23 2.424l.17.432-5.043 2.107c.386.764.986 1.154 1.829 1.154s1.43-.418 1.858-1.053l1.286.866c-.414.62-1.415 1.687-3.144 1.687-2.143 0-3.743-1.673-3.743-3.808 0-2.265 1.614-3.81 3.557-3.81zm-36.955 2.784v-1.616h5.387a5.3 5.3 0 01.085 1.01c0 1.212-.328 2.713-1.386 3.78-1.028 1.083-2.343 1.66-4.086 1.66-3.23 0-5.944-2.655-5.944-5.916 0-3.26 2.715-5.915 5.944-5.915 1.786 0 3.058.707 4.015 1.63l-1.129 1.14c-.686-.65-1.614-1.154-2.886-1.154-2.358 0-4.2 1.919-4.2 4.3 0 2.38 1.842 4.299 4.2 4.299 1.529 0 2.4-.62 2.958-1.184.457-.461.757-1.125.871-2.034h-3.83zm7.697 1.025c0 1.356.986 2.308 2.129 2.308s2.129-.952 2.129-2.308c0-1.371-.986-2.309-2.13-2.309-1.142 0-2.128.938-2.128 2.309zm-1.658 0c0-2.208 1.7-3.81 3.787-3.81 2.086 0 3.786 1.602 3.786 3.81 0 2.193-1.7 3.808-3.786 3.808-2.086 0-3.787-1.615-3.787-3.808zm9.918 0c0 1.356.986 2.308 2.129 2.308s2.129-.952 2.129-2.308c0-1.371-.986-2.309-2.129-2.309s-2.129.938-2.129 2.309zm-1.657 0c0-2.208 1.7-3.81 3.786-3.81 2.086 0 3.786 1.602 3.786 3.81 0 2.193-1.7 3.808-3.786 3.808-2.086 0-3.786-1.615-3.786-3.808zm-15.781-12.85c.221-.225.36-.533.41-.936H39.44v-.824h2.742l.013.073c.026.146.039.286.039.422 0 .766-.227 1.392-.686 1.855-.517.548-1.198.824-2.019.823a2.754 2.754 0 01-2.02-.832c-.555-.553-.834-1.248-.833-2.064 0-.816.278-1.51.832-2.064a2.755 2.755 0 012.021-.833c.393 0 .77.078 1.127.233.357.155.648.363.866.625l.052.063-.058.058-.536.542-.062-.075c-.336-.404-.79-.604-1.389-.606-.54.001-.997.189-1.392.572-.39.381-.585.868-.586 1.485.001.616.196 1.104.586 1.485.395.383.853.57 1.392.572.575-.002 1.043-.19 1.424-.574zm5.369-3.51v-.75h-3.284v5.553h3.284v-.839h-2.424v-1.525h2.186v-.825h-2.186V9.109h2.424v-.09zm2.883 4.714V9.108h1.487v-.84h-3.835v.84h1.487v4.713h.861v-.09zm4.044.09h.773V8.268h-.862v5.552h.089zm3.805-.09V9.108h1.487v-.84h-3.834v.84h1.486v4.713h.861v-.09zm4.986-1.208c-.376-.386-.564-.872-.565-1.48 0-.606.189-1.092.565-1.478.38-.387.833-.577 1.383-.578.549.001 1.004.191 1.382.578.377.386.565.872.566 1.479 0 .607-.189 1.093-.566 1.48a1.854 1.854 0 01-1.382.576 1.856 1.856 0 01-1.383-.577zm3.398.575c.537-.557.81-1.249.809-2.054 0-.8-.272-1.49-.813-2.051-.54-.562-1.217-.847-2.011-.846-.798 0-1.477.282-2.014.843-.54.557-.81 1.249-.81 2.054 0 .805.27 1.497.81 2.055l.002.002-.002-.003c.537.56 1.216.843 2.014.842.798 0 1.477-.282 2.015-.842zm2.561-4.83l2.47 3.992-.021-.757V8.269h.861v5.552h-.851l-2.59-4.194.022.756v3.438h-.861V8.27H68z" class="Union" clip-rule="evenodd"/>
        <g class="Group 79">
          <g class="g4076">
            <g class="g4078">
              <path fill="url(#paint0_linear_10291_91604)" d="M9.41 31.095l-.065-.064c-.259-.275-.41-.703-.41-1.258v.13-19.805-.004.135c0-.6.177-1.052.474-1.323L20.4 20 9.41 31.095zm-.476-21.002zm.004-.147v-.002.002zm0-.006v-.001z" class="path4098"/>
            </g>
          </g>
          <g class="g4100">
            <g class="g4102">
              <path fill="url(#paint1_linear_10291_91604)" d="M24.06 23.832l.084-.048 4.34-2.49c.413-.237.689-.525.826-.83-.137.305-.412.593-.827.83l-4.34 2.49-.083.048zm.001-.131L20.398 20l3.663-3.7 4.422 2.538c.562.322.877.737.93 1.162v.001c-.053.424-.368.84-.93 1.161l-4.422 2.538" class="path4118"/>
            </g>
          </g>
          <g class="g4120">
            <g class="g4122">
              <path fill="url(#paint2_linear_10291_91604)" d="M10.194 31.517c-.307 0-.575-.1-.784-.29a1.136 1.136 0 00.784.29zm0-.13c-.307 0-.575-.102-.784-.292L20.398 20l3.663 3.7-12.873 7.385c-.357.204-.694.3-.994.3zm-.787-.163a1.206 1.206 0 01-.057-.056l.057.056z" class="path4134"/>
            </g>
          </g>
          <g class="g4136">
            <g class="g4138">
              <path fill="url(#paint3_linear_10291_91604)" d="M20.398 20.001L9.409 8.906c.209-.19.477-.29.783-.29.3 0 .639.096.995.3l12.874 7.386-3.663 3.7zm3.746-3.782L11.188 8.786c-.357-.205-.695-.301-.996-.301h-.004.006c.3 0 .637.096.993.3l12.957 7.434z" class="path4156"/>
            </g>
          </g>
          <path fill="#000" d="M10.275 31.515c.28-.016.588-.113.912-.298L24.06 23.83l-12.873 7.386c-.324.186-.633.282-.912.299zm-.865-.288l-.003-.003.003.003zm-.06-.06l-.006-.005.006.006z" class="path4158"/>
          <g class="g4160">
            <g class="g4162">
              <path fill="url(#paint4_linear_10291_91604)" d="M24.06 23.832l.084-.048-.084.048z" class="path4178"/>
            </g>
          </g>
          <g class="g4180">
            <g class="g4182">
              <path fill="url(#paint5_linear_10291_91604)" d="M10.194 31.517c-.307 0-.575-.1-.784-.29l-.003-.003-.057-.056-.006-.006.066-.067c.209.19.477.292.784.291.3 0 .637-.096.993-.3L24.061 23.7l.083.084-.084.047-12.873 7.386c-.324.185-.633.282-.912.298a1.711 1.711 0 01-.08.002" class="path4194"/>
            </g>
          </g>
          <path fill="#000" d="M9.345 31.163c-.259-.276-.41-.704-.41-1.259 0 .555.151.983.41 1.258" class="path4196"/>
          <g class="g4198">
            <g class="g4200">
              <path fill="url(#paint6_linear_10291_91604)" d="M9.345 31.162c-.259-.275-.41-.703-.41-1.258v-.13c0 .554.151.982.41 1.258l.065.063-.065.067" class="path4220"/>
            </g>
          </g>
          <g class="g4222">
            <g class="g4224">
              <path fill="url(#paint7_linear_10291_91604)" d="M9.344 31.162l.066-.067-.066.067" class="path4236"/>
            </g>
          </g>
          <path fill="#000" d="M29.31 20.465c.069-.152.103-.307.103-.462v-.001c0 .156-.034.311-.102.463z" class="path4238"/>
          <g class="g4240">
            <g class="g4242">
              <path fill="url(#paint8_linear_10291_91604)" d="M24.143 23.784l-.082-.084 4.422-2.537c.562-.322.877-.738.93-1.161 0 .155-.035.31-.103.462-.137.305-.413.592-.827.83l-4.34 2.49z" class="path4258"/>
            </g>
          </g>
          <path fill="#404040" d="M29.413 20.001c0-.469-.31-.937-.93-1.293l-4.34-2.49 4.34 2.49c.62.356.93.825.93 1.293z" class="path4260"/>
          <g class="g4262">
            <g class="g4264">
              <path fill="url(#paint9_linear_10291_91604)" d="M29.413 20c-.053-.423-.368-.839-.93-1.16l-4.422-2.538.082-.083 4.34 2.49c.62.355.93.823.93 1.292z" class="path4280"/>
            </g>
          </g>
          <path fill="#404040" d="M8.934 10.094v-.001zm.004-.146v-.002.002zm0-.004V9.94v.004zm0-.005c.052-.92.547-1.452 1.248-1.455a1.135 1.135 0 00-.776.291l-.002.003c-.022.02-.043.04-.063.062-.233.249-.38.621-.407 1.099z" class="path4282"/>
          <g class="g4284">
            <g class="g4286">
              <path fill="url(#paint10_linear_10291_91604)" d="M8.934 10.23v-.131-.005-.001c0-.05.001-.098.004-.144v-.003-.002-.004c.027-.478.174-.85.407-1.1l.064.066c-.297.271-.475.723-.475 1.324zm.474-1.452l.002-.003-.002.003z" class="path4306"/>
            </g>
          </g>
          <g class="g4310">
            <g class="g4312">
              <path fill="url(#paint11_linear_10291_91604)" d="M24.06 16.302L11.188 8.916c-.356-.204-.694-.3-.995-.3-.307 0-.574.1-.783.29l-.065-.066c.02-.021.041-.042.063-.062l.003-.002c.207-.189.472-.29.775-.292h.007c.3 0 .639.097.995.302l12.957 7.433-.083.083z" class="path4330"/>
            </g>
          </g>
        </g>
      </g>
    </g>
  </g>
  <defs>
    <linearGradient id="paint0_linear_10291_91604" x1="19.424" x2="4.395" y1="9.889" y2="24.773" class="paint0_linear_10291_91604" gradientUnits="userSpaceOnUse">
      <stop stop-color="#00A0FF"/>
      <stop offset=".007" stop-color="#00A1FF"/>
      <stop offset=".26" stop-color="#00BEFF"/>
      <stop offset=".512" stop-color="#00D2FF"/>
      <stop offset=".76" stop-color="#00DFFF"/>
      <stop offset="1" stop-color="#00E3FF"/>
    </linearGradient>
    <linearGradient id="paint1_linear_10291_91604" x1="30.097" x2="8.637" y1="20.001" y2="20.001" class="paint1_linear_10291_91604" gradientUnits="userSpaceOnUse">
      <stop stop-color="#FFE000"/>
      <stop offset=".409" stop-color="#FFBD00"/>
      <stop offset=".775" stop-color="orange"/>
      <stop offset="1" stop-color="#FF9C00"/>
    </linearGradient>
    <linearGradient id="paint2_linear_10291_91604" x1="22.109" x2="1.729" y1="22.056" y2="42.24" class="paint2_linear_10291_91604" gradientUnits="userSpaceOnUse">
      <stop stop-color="#FF3A44"/>
      <stop offset="1" stop-color="#C31162"/>
    </linearGradient>
    <linearGradient id="paint3_linear_10291_91604" x1="6.561" x2="15.661" y1="2.248" y2="11.261" class="paint3_linear_10291_91604" gradientUnits="userSpaceOnUse">
      <stop stop-color="#32A071"/>
      <stop offset=".069" stop-color="#2DA771"/>
      <stop offset=".476" stop-color="#15CF74"/>
      <stop offset=".801" stop-color="#06E775"/>
      <stop offset="1" stop-color="#00F076"/>
    </linearGradient>
    <linearGradient id="paint4_linear_10291_91604" x1="30.097" x2="8.636" y1="20.002" y2="20.002" class="paint4_linear_10291_91604" gradientUnits="userSpaceOnUse">
      <stop stop-color="#CCB300"/>
      <stop offset=".409" stop-color="#CC9700"/>
      <stop offset=".775" stop-color="#CC8400"/>
      <stop offset="1" stop-color="#CC7D00"/>
    </linearGradient>
    <linearGradient id="paint5_linear_10291_91604" x1="22.108" x2="1.729" y1="22.056" y2="42.24" class="paint5_linear_10291_91604" gradientUnits="userSpaceOnUse">
      <stop stop-color="#CC2E36"/>
      <stop offset="1" stop-color="#9C0E4E"/>
    </linearGradient>
    <linearGradient id="paint6_linear_10291_91604" x1="19.424" x2="4.395" y1="9.89" y2="24.774" class="paint6_linear_10291_91604" gradientUnits="userSpaceOnUse">
      <stop stop-color="#008DE0"/>
      <stop offset=".007" stop-color="#008DE0"/>
      <stop offset=".26" stop-color="#00A7E0"/>
      <stop offset=".512" stop-color="#00B8E0"/>
      <stop offset=".76" stop-color="#00C4E0"/>
      <stop offset="1" stop-color="#00C7E0"/>
    </linearGradient>
    <linearGradient id="paint7_linear_10291_91604" x1="22.108" x2="1.729" y1="22.057" y2="42.24" class="paint7_linear_10291_91604" gradientUnits="userSpaceOnUse">
      <stop stop-color="#E0333C"/>
      <stop offset="1" stop-color="#AB0F56"/>
    </linearGradient>
    <linearGradient id="paint8_linear_10291_91604" x1="30.097" x2="8.636" y1="20.001" y2="20.001" class="paint8_linear_10291_91604" gradientUnits="userSpaceOnUse">
      <stop stop-color="#E0C500"/>
      <stop offset=".409" stop-color="#E0A600"/>
      <stop offset=".775" stop-color="#E09100"/>
      <stop offset="1" stop-color="#E08900"/>
    </linearGradient>
    <linearGradient id="paint9_linear_10291_91604" x1="30.097" x2="8.637" y1="20.002" y2="20.002" class="paint9_linear_10291_91604" gradientUnits="userSpaceOnUse">
      <stop stop-color="#FFE840"/>
      <stop offset=".409" stop-color="#FFCE40"/>
      <stop offset=".775" stop-color="#FFBC40"/>
      <stop offset="1" stop-color="#FFB540"/>
    </linearGradient>
    <linearGradient id="paint10_linear_10291_91604" x1="19.424" x2="4.395" y1="9.89" y2="24.773" class="paint10_linear_10291_91604" gradientUnits="userSpaceOnUse">
      <stop stop-color="#40B8FF"/>
      <stop offset=".007" stop-color="#40B9FF"/>
      <stop offset=".26" stop-color="#40CEFF"/>
      <stop offset=".512" stop-color="#40DDFF"/>
      <stop offset=".76" stop-color="#40E7FF"/>
      <stop offset="1" stop-color="#40EAFF"/>
    </linearGradient>
    <linearGradient id="paint11_linear_10291_91604" x1="6.561" x2="15.661" y1="2.248" y2="11.261" class="paint11_linear_10291_91604" gradientUnits="userSpaceOnUse">
      <stop stop-color="#65B895"/>
      <stop offset=".069" stop-color="#62BD95"/>
      <stop offset=".476" stop-color="#50DB97"/>
      <stop offset=".801" stop-color="#44ED98"/>
      <stop offset="1" stop-color="#40F498"/>
    </linearGradient>
    <clipPath id="clip0_10291_91604" class="clip0_10291_91604">
      <path fill="#fff" d="M0 0h120v40H0z"/>
    </clipPath>
  </defs>
</svg>