<?xml version="1.0" encoding="utf-8"?>
<!-- Generator: $$$/GeneralStr/196=Adobe Illustrator 27.6.0, SVG Export Plug-In . SVG Version: 6.00 Build 0)  -->
<svg version="1.1" id="_圖層_1" xmlns="http://www.w3.org/2000/svg" xmlns:xlink="http://www.w3.org/1999/xlink" x="0px" y="0px"
	 viewBox="0 0 286 85" style="enable-background:new 0 0 286 85;" xml:space="preserve">
<style type="text/css">
	.st0{fill:#FFFFFF;}
</style>
<path class="st0" d="M32.7,84.5c-0.7,0-1.5,0-2.2-0.1C13.5,83.3,0.2,69,0.2,52v-2.6h7.9V52c0,12.9,10,23.6,22.9,24.5
	c1,0.1,2.3,0.1,3.5,0c18.1-0.9,32.3-15.9,32.3-34S51.5,8.5,32.8,8.4c-1.8,9.4-7,17.9-14.6,23.7l-0.3,0.3l-0.7,0.4l-3.5-7.1l1.7,3.6
	l-2.6-2.9l0.4-0.3c6.9-5.2,11.4-13.1,12.2-21.8l0.3-3.3L29,0.7c1.2-0.1,2.5-0.2,3.7-0.2c23.2,0,42,18.8,42,42S57.2,83.3,34.8,84.4
	C34.1,84.4,33.4,84.5,32.7,84.5L32.7,84.5z"/>
<polygon class="st0" points="2.8,60.8 2.8,50.1 29.5,36.3 56.1,50.1 56.1,60.8 29.5,47 "/>
<rect x="19.4" y="59.7" class="st0" width="6.7" height="6.7"/>
<rect x="32.9" y="59.7" class="st0" width="6.7" height="6.7"/>
<path class="st0" d="M102.7,67.2v17.1h-3.4v-7.3H92v7.3h-3.4V67.2H92v7h7.3v-7C99.3,67.2,102.7,67.2,102.7,67.2z"/>
<path class="st0" d="M109.6,83.4c-1.3-0.8-2.4-1.8-3.2-3.1s-1.2-2.8-1.2-4.5s0.4-3.2,1.2-4.5c0.8-1.3,1.8-2.4,3.2-3.1
	c1.3-0.8,2.8-1.1,4.4-1.1s3.1,0.4,4.4,1.1s2.4,1.8,3.2,3.1c0.8,1.3,1.2,2.8,1.2,4.5s-0.4,3.2-1.2,4.5c-0.8,1.3-1.8,2.4-3.2,3.1
	s-2.8,1.1-4.4,1.1S111,84.1,109.6,83.4z M116.7,80.7c0.8-0.5,1.4-1.1,1.8-2c0.4-0.9,0.7-1.9,0.7-3s-0.2-2.1-0.7-3s-1.1-1.5-1.8-2
	c-0.8-0.5-1.7-0.7-2.7-0.7s-1.9,0.2-2.7,0.7s-1.4,1.1-1.8,2c-0.4,0.9-0.7,1.9-0.7,3s0.2,2.2,0.7,3s1.1,1.5,1.8,2
	c0.8,0.5,1.7,0.7,2.7,0.7S116,81.2,116.7,80.7z"/>
<path class="st0" d="M143.9,67.2v17.1h-3.4V73.2l-4.6,11.1h-2.6l-4.6-11.1v11.1h-3.4V67.2h3.9l5.4,12.7l5.4-12.7
	C140.1,67.2,143.9,67.2,143.9,67.2z"/>
<path class="st0" d="M150.8,70v4.3h5.8V77h-5.8v4.5h6.5v2.8h-9.9V67.2h9.9V70L150.8,70L150.8,70z"/>
<path class="st0" d="M166.5,71.2c0.8-1.3,1.8-2.4,3.1-3.1s2.8-1.1,4.4-1.1c1.9,0,3.6,0.5,5,1.5s2.4,2.3,3,4.1h-3.9
	c-0.4-0.8-0.9-1.4-1.6-1.8c-0.7-0.4-1.5-0.6-2.5-0.6c-1,0-1.9,0.2-2.7,0.7s-1.4,1.1-1.8,2s-0.6,1.8-0.6,3s0.2,2.1,0.6,3s1,1.5,1.8,2
	c0.8,0.5,1.7,0.7,2.7,0.7c0.9,0,1.8-0.2,2.5-0.6s1.3-1,1.6-1.8h3.9c-0.6,1.8-1.6,3.1-3,4.1c-1.4,1-3.1,1.5-5,1.5
	c-1.6,0-3.1-0.4-4.4-1.1s-2.4-1.8-3.1-3.1s-1.1-2.8-1.1-4.5S165.7,72.6,166.5,71.2z"/>
<path class="st0" d="M188.4,81.6h5.6v2.7H185V67.2h3.4C188.4,67.2,188.4,81.6,188.4,81.6z"/>
<path class="st0" d="M199.6,70v4.3h5.8V77h-5.8v4.5h6.5v2.8h-9.9V67.2h9.9V70L199.6,70L199.6,70z"/>
<path class="st0" d="M219.7,81.1h-6.8l-1.1,3.3h-3.6l6.1-17.1h4l6.1,17.1h-3.6L219.7,81.1L219.7,81.1z M218.8,78.3l-2.5-7.2
	l-2.5,7.2H218.8L218.8,78.3z"/>
<path class="st0" d="M241.4,84.3H238l-7.8-11.7v11.7h-3.4V67.2h3.4L238,79V67.2h3.4V84.3z"/>
<path class="st0" d="M248.2,67.2v17.1h-3.4V67.2C244.8,67.2,248.2,67.2,248.2,67.2z"/>
<path class="st0" d="M266.2,84.3h-3.4L255,72.6v11.7h-3.4V67.2h3.4l7.8,11.8V67.2h3.4V84.3z"/>
<path class="st0" d="M281.5,72.4c-0.4-0.7-0.9-1.3-1.6-1.6s-1.5-0.6-2.4-0.6c-1,0-1.9,0.2-2.7,0.7c-0.8,0.4-1.4,1.1-1.8,2
	s-0.7,1.8-0.7,2.9s0.2,2.1,0.7,3s1.1,1.5,1.9,2s1.7,0.7,2.8,0.7c1.3,0,2.4-0.3,3.2-1s1.4-1.7,1.6-2.9h-5.9v-2.6h9.2v3
	c-0.2,1.2-0.7,2.3-1.5,3.3c-0.8,1-1.7,1.8-2.9,2.4c-1.2,0.6-2.5,0.9-4,0.9c-1.6,0-3.1-0.4-4.5-1.1c-1.3-0.7-2.4-1.8-3.1-3.1
	s-1.1-2.8-1.1-4.5s0.4-3.2,1.1-4.5s1.8-2.4,3.1-3.1c1.3-0.7,2.8-1.1,4.4-1.1c1.9,0,3.6,0.5,5,1.4c1.4,0.9,2.4,2.3,2.9,3.9
	L281.5,72.4L281.5,72.4z"/>
<path class="st0" d="M98.7,14.8h35.6V21h-15.8c-0.8,0.8-1.7,1.6-2.6,2.4c3.2,1.5,5.4,4,6.8,7.6c6.4-4.2,13.4-6.5,21-7v5.9
	c-5.8,0.6-11.7,2.5-17.8,5.9c6.6,6.1,12.9,10.8,18.9,14.1v7.5c-7.8-4.5-14.6-9.7-20.6-15.5c-0.1,4.2-0.8,8.2-2,12
	c-1.5,3.5-4.3,5.4-8.6,5.7c-4.2,0-7.3-0.3-9.5-0.9v-5.9c2.5,0.5,5.2,0.7,8,0.7c2.4,0,3.9-0.9,4.4-2.7c0.8-1.8,1.3-4.5,1.4-8.3
	c-6.7,6.1-16.5,10.7-29.5,13.9v-6.6c13.4-2.9,23.1-7.9,28.9-15.1c-0.2-1-0.5-2-0.9-2.8C111,38,101.7,42.5,88.8,45.2v-6.6
	c9.3-1.3,17.3-4.9,23.9-10.7c-0.8-0.3-1.7-0.5-2.6-0.6c-5.4,2.8-12.5,5.1-21.3,6.9v-6.6c8.7-0.9,15.7-3.1,20.8-6.7H98.7V14.8
	L98.7,14.8z M112.7,0.5h6.8v4.7h16.4c5.4,0.6,8.2,2.9,8.2,6.8c-0.1,4.1-0.6,7.1-1.3,9.1h-6.5c0.9-3.9,1.4-6.4,1.4-7.6
	c0-1.6-1.1-2.5-3.4-2.5h-38v9.7h-6.4L89.7,5.1l23,0.1L112.7,0.5L112.7,0.5z"/>
<path class="st0" d="M169,14.8h35.7V21h-15.8c-0.8,0.8-1.7,1.6-2.6,2.4c3.2,1.5,5.4,4,6.8,7.6c6.4-4.2,13.4-6.5,21-7v5.9
	c-5.8,0.6-11.7,2.5-17.8,5.9c6.6,6.1,12.9,10.8,18.9,14.1v7.5c-7.8-4.5-14.6-9.7-20.6-15.5c-0.1,4.2-0.8,8.2-2,12
	c-1.5,3.5-4.3,5.4-8.6,5.7c-4.2,0-7.3-0.3-9.5-0.9v-5.9c2.5,0.5,5.2,0.7,8,0.7c2.4,0,3.9-0.9,4.4-2.7c0.8-1.8,1.3-4.5,1.4-8.3
	c-6.7,6.1-16.5,10.7-29.5,13.9v-6.6c13.5-2.9,23.1-7.9,28.9-15.1c-0.2-1-0.5-2-0.9-2.8C181.2,38,172,42.5,159,45.2v-6.6
	c9.3-1.3,17.3-4.9,23.9-10.7c-0.8-0.3-1.7-0.5-2.6-0.6c-5.4,2.8-12.5,5.1-21.3,6.9v-6.6c8.7-0.9,15.7-3.1,20.9-6.7H169L169,14.8
	L169,14.8z M182.9,0.5h6.8v4.7h16.4c5.4,0.6,8.2,2.9,8.2,6.8c-0.1,4.1-0.6,7.1-1.3,9.1h-6.5c0.9-3.9,1.4-6.4,1.4-7.6
	c0-1.6-1.1-2.5-3.4-2.5h-38v9.7H160l-0.1-15.6l23,0.1L182.9,0.5L182.9,0.5z"/>
<path class="st0" d="M236.2,33.2h6.4c-2.4,10.3-7,18.6-14,25v-9.7C232.1,44.9,234.6,39.8,236.2,33.2L236.2,33.2z M229.1,16.8
	c5,1.6,9.5,3.6,13.5,6v7.3c-4.6-2.9-9.1-5-13.5-6.4V16.8z M229.3,2.3c4.9,1.5,9.4,3.5,13.5,5.9v7.3c-4.5-2.9-9-5-13.5-6.5V2.3z
	 M282,2.2v5.7c-8,0.3-17.4,0.6-28.4,0.7c-1.1,3.4-2.5,6.6-3.9,9.4h-6.1c2.1-5.1,4-10.2,5.6-15.3l6,0.1C263,2.8,272,2.6,282,2.2
	L282,2.2z M244.6,30.3h15.1c-0.1-1.5-0.2-3.1-0.2-4.6H247v-5.9h24.8c5.8,0.4,9,3.9,9.7,10.6h4.4v6.1h-4.4c-0.9,6.8-4,10.3-9.4,10.7
	h-5.6v6.7c0,4.2-2.5,6.2-7.6,6.2c-2.8,0-5.3-0.1-7.4-0.2v-6.1c1.2,0.2,3,0.3,5.4,0.3c2.1,0,3.2-0.9,3.2-2.7c0-1.4,0.1-2.8,0.1-4.3
	h-13.4v-5.8h13.5v-1.7c0-1-0.1-2.1-0.1-3.1h-15.4L244.6,30.3L244.6,30.3z M259.3,10.7h6c1,2.4,2,4.9,3,7.4h-6.2
	C261.1,15.5,260.2,13.1,259.3,10.7z M274.8,30.3c-0.6-2.7-2.2-4.2-4.6-4.6H266c0.1,1.6,0.1,3.2,0.2,4.6H274.8L274.8,30.3z
	 M266.4,41.3h4c2.5,0,4-1.6,4.5-4.8h-8.5c0,1.6,0.1,3.1,0.1,4.5L266.4,41.3L266.4,41.3z M273.7,10.5h6c1.3,2.8,2.8,5.5,4.3,8h-6.4
	C276.3,16.3,275,13.6,273.7,10.5L273.7,10.5z"/>
</svg>
